<svg xmlns="http://www.w3.org/2000/svg" viewBox="0 0 400 400">
  <g id="Layer_1">
    <g>
      <path d="M200,0C89.543,0,0,89.543,0,200s89.543,200,200,200s200-89.543,200-200S310.457,0,200,0z M200,365.787    c-91.12,0-165.787-74.667-165.787-165.787S108.88,34.213,200,34.213s165.787,74.667,165.787,165.787S291.12,365.787,200,365.787z"/>
      <path d="M128.72,210.5h38.044c0.447,0,0.865-0.238,1.097-0.623l2.733-5.063c0.536-0.994,0.096-2.24-0.898-2.775    c-0.994-0.536-2.24-0.096-2.775,0.898l-2.733,5.063c-0.209,0.387-0.568,0.65-0.998,0.731h-38.044    c-0.447,0-0.865,0.238-1.097,0.623l-2.733,5.063c-0.536,0.994-0.096,2.24,0.898,2.775c0.994,0.536,2.24,0.096,2.775-0.898    l2.733-5.063C127.853,210.763,128.311,210.5,128.72,210.5z"/>
      <path d="M128.72,249.5h38.044c0.447,0,0.865-0.238,1.097-0.623l2.733-5.063c0.536-0.994,0.096-2.24-0.898-2.775    c-0.994-0.536-2.24-0.096-2.775,0.898l-2.733,5.063c-0.209,0.387-0.568,0.65-0.998,0.731h-38.044    c-0.447,0-0.865,0.238-1.097,0.623l-2.733,5.063c-0.536,0.994-0.096,2.24,0.898,2.775c0.994,0.536,2.24,0.096,2.775-0.898    l2.733-5.063C127.853,249.763,128.311,249.5,128.72,249.5z"/>
      <path d="M128.72,168.5h38.044c0.447,0,0.865-0.238,1.097-0.623l2.733-5.063c0.536-0.994,0.096-2.24-0.898-2.775    c-0.994-0.536-2.24-0.096-2.775,0.898l-2.733,5.063c-0.209,0.387-0.568,0.65-0.998,0.731h-38.044    c-0.447,0-0.865,0.238-1.097,0.623l-2.733,5.063c-0.536,0.994-0.096,2.24,0.898,2.775c0.994,0.536,2.24,0.096,2.775-0.898    l2.733-5.063C127.853,168.763,128.311,168.5,128.72,168.5z"/>
      <path d="M271.28,210.5h-38.044c-0.447,0-0.865,0.238-1.097,0.623l-2.733,5.063c-0.536,0.994-0.096,2.24,0.898,2.775    c0.994,0.536,2.24,0.096,2.775-0.898l2.733-5.063c0.209-0.387,0.568-0.65,0.998-0.731h38.044c0.447,0,0.865-0.238,1.097-0.623    l2.733-5.063c0.536-0.994,0.096-2.24-0.898-2.775c-0.994-0.536-2.24-0.096-2.775,0.898l-2.733,5.063    C272.147,210.237,271.689,210.5,271.28,210.5z"/>
      <path d="M271.28,249.5h-38.044c-0.447,0-0.865,0.238-1.097,0.623l-2.733,5.063c-0.536,0.994-0.096,2.24,0.898,2.775    c0.994,0.536,2.24,0.096,2.775-0.898l2.733-5.063c0.209-0.387,0.568-0.65,0.998-0.731h38.044c0.447,0,0.865-0.238,1.097-0.623    l2.733-5.063c0.536-0.994,0.096-2.24-0.898-2.775c-0.994-0.536-2.24-0.096-2.775,0.898l-2.733,5.063    C272.147,249.237,271.689,249.5,271.28,249.5z"/>
      <path d="M271.28,168.5h-38.044c-0.447,0-0.865,0.238-1.097,0.623l-2.733,5.063c-0.536,0.994-0.096,2.24,0.898,2.775    c0.994,0.536,2.24,0.096,2.775-0.898l2.733-5.063c0.209-0.387,0.568-0.65,0.998-0.731h38.044c0.447,0,0.865-0.238,1.097-0.623    l2.733-5.063c0.536-0.994,0.096-2.24-0.898-2.775c-0.994-0.536-2.24-0.096-2.775,0.898l-2.733,5.063    C272.147,168.237,271.689,168.5,271.28,168.5z"/>
    </g>
  </g>
</svg>
